<?xml version="1.0" encoding="utf-8"?>
<!-- Generator: Adobe Illustrator 16.0.0, SVG Export Plug-In . SVG Version: 6.00 Build 0)  -->
<!DOCTYPE svg PUBLIC "-//W3C//DTD SVG 1.1//EN" "http://www.w3.org/Graphics/SVG/1.1/DTD/svg11.dtd">
<svg version="1.1" id="Layer_1" xmlns="http://www.w3.org/2000/svg" xmlns:xlink="http://www.w3.org/1999/xlink" x="0px" y="0px"
	 width="20px" height="20px" viewBox="590 590 20 20" enable-background="new 590 590 20 20" xml:space="preserve">
<polygon fill="#B8C0C6" points="605.005,595.192 597.813,602.384 594.996,599.564 593.783,600.777 597.813,604.808 606.217,596.405 
	"/>
<g>
	<path fill="#B8C0C6" d="M600,610c-5.514,0-10-4.485-10-10c0-5.514,4.486-10,10-10c5.515,0,10,4.486,10,10
		C610,605.515,605.515,610,600,610z M600,590.952c-4.989,0-9.048,4.059-9.048,9.048c0,4.989,4.059,9.048,9.048,9.048
		c4.989,0,9.048-4.059,9.048-9.048C609.048,595.011,604.989,590.952,600,590.952z"/>
</g>
</svg>
